<svg width="29" height="29" viewBox="0 0 29 29" fill="none" xmlns="http://www.w3.org/2000/svg">
<g clip-path="url(#clip0_306_568)">
<path d="M21.1461 1.10828C19.7854 1.12944 18.4545 1.50927 17.2876 2.2094C16.1207 2.90953 15.1592 3.90517 14.5002 5.09578C13.8413 3.90517 12.8798 2.90953 11.7129 2.2094C10.546 1.50927 9.21504 1.12944 7.8544 1.10828C5.68537 1.20252 3.6418 2.15137 2.17014 3.74756C0.698481 5.34374 -0.0816308 7.45749 0.000234432 9.62703C0.000234432 17.8135 13.2387 27.2687 13.8018 27.6699L14.5002 28.1641L15.1987 27.6699C15.7617 27.2711 29.0002 17.8135 29.0002 9.62703C29.0821 7.45749 28.302 5.34374 26.8303 3.74756C25.3587 2.15137 23.3151 1.20252 21.1461 1.10828Z" fill="white"/>
</g>
<defs>
<clipPath id="clip0_306_568">
<rect width="29" height="29" fill="white"/>
</clipPath>
</defs>
</svg>
